<svg width="30" height="41" viewBox="0 0 30 41" fill="none" xmlns="http://www.w3.org/2000/svg">
<g id="fa:mobile" clip-path="url(#clip0_294_1837)">
<path id="Vector" d="M17.7201 36.9C17.7201 36.1953 17.4243 35.5921 16.8327 35.0902C16.2411 34.5884 15.5299 34.3375 14.6992 34.3375C13.8685 34.3375 13.1573 34.5884 12.5658 35.0902C11.9742 35.5921 11.6784 36.1953 11.6784 36.9C11.6784 37.6047 11.9742 38.2079 12.5658 38.7098C13.1573 39.2116 13.8685 39.4625 14.6992 39.4625C15.5299 39.4625 16.2411 39.2116 16.8327 38.7098C17.4243 38.2079 17.7201 37.6047 17.7201 36.9ZM25.5742 31.775V9.225C25.5742 8.9474 25.4546 8.70716 25.2155 8.5043C24.9763 8.30143 24.6931 8.2 24.3659 8.2H5.03255C4.7053 8.2 4.42209 8.30143 4.18294 8.5043C3.94379 8.70716 3.82422 8.9474 3.82422 9.225V31.775C3.82422 32.0526 3.94379 32.2928 4.18294 32.4957C4.42209 32.6986 4.7053 32.8 5.03255 32.8H24.3659C24.6931 32.8 24.9763 32.6986 25.2155 32.4957C25.4546 32.2928 25.5742 32.0526 25.5742 31.775ZM18.3242 4.6125C18.3242 4.27083 18.1228 4.1 17.7201 4.1H11.6784C11.2756 4.1 11.0742 4.27083 11.0742 4.6125C11.0742 4.95417 11.2756 5.125 11.6784 5.125H17.7201C18.1228 5.125 18.3242 4.95417 18.3242 4.6125ZM29.1992 4.1V36.9C29.1992 38.0104 28.7209 38.9714 27.7643 39.7828C26.8077 40.5943 25.6749 41 24.3659 41H5.03255C3.72352 41 2.59071 40.5943 1.63411 39.7828C0.677517 38.9714 0.199219 38.0104 0.199219 36.9V4.1C0.199219 2.98958 0.677517 2.02865 1.63411 1.21719C2.59071 0.405729 3.72352 0 5.03255 0H24.3659C25.6749 0 26.8077 0.405729 27.7643 1.21719C28.7209 2.02865 29.1992 2.98958 29.1992 4.1Z" fill="#800020"/>
</g>
<defs>
<clipPath id="clip0_294_1837">
<rect width="29" height="41" fill="white" transform="translate(0.199219)"/>
</clipPath>
</defs>
</svg>
