<svg xmlns="http://www.w3.org/2000/svg" width="148" height="64" viewBox="0 0 148 64" fill="none">
  <path d="M0.5 17.9519C0.5 11.6682 0.5 8.52627 1.6711 6.1262C2.70123 4.01503 4.34495 2.29859 6.3667 1.2229C8.66511 0 11.6739 0 17.6915 0H130.309C136.326 0 139.335 0 141.633 1.2229C143.655 2.29859 145.299 4.01503 146.329 6.1262C147.5 8.52627 147.5 11.6682 147.5 17.9519V46.0481C147.5 52.3318 147.5 55.4737 146.329 57.8738C145.299 59.985 143.655 61.7014 141.633 62.7771C139.335 64 136.326 64 130.309 64H17.6915C11.6739 64 8.66511 64 6.3667 62.7771C4.34495 61.7014 2.70123 59.985 1.6711 57.8738C0.5 55.4737 0.5 52.3318 0.5 46.0481V17.9519Z" fill="#4D4D4D"/>
  <path d="M1.80469 17.8334C1.80469 12.0685 1.80469 9.18604 2.87909 6.98413C3.82416 5.04728 5.33217 3.47257 7.18698 2.4857C9.29561 1.36377 12.056 1.36377 17.5767 1.36377H130.42C135.941 1.36377 138.702 1.36377 140.81 2.4857C142.665 3.47257 144.173 5.04728 145.118 6.98413C146.192 9.18604 146.192 12.0685 146.192 17.8334V46.1663C146.192 51.9313 146.192 54.8137 145.118 57.0156C144.173 58.9525 142.665 60.5272 140.81 61.5141C138.702 62.636 135.941 62.636 130.42 62.636H17.5767C12.056 62.636 9.29561 62.636 7.18698 61.5141C5.33217 60.5272 3.82416 58.9525 2.87909 57.0156C1.80469 54.8137 1.80469 51.9313 1.80469 46.1663V17.8334Z" fill="white"/>
  <path d="M57.004 33.0159C57.6437 33.018 58.2731 32.8479 58.8318 32.5226C59.4067 32.2025 59.9124 31.7617 60.3173 31.2287C60.7392 30.6651 61.0709 30.0339 61.2996 29.3594C61.5409 28.6625 61.6633 27.9273 61.6624 27.1864C61.7008 26.4348 61.547 25.6859 61.2173 25.0168C60.9231 24.4985 60.3752 24.2343 59.5812 24.2343C59.2352 24.2466 58.8912 24.2958 58.5543 24.3807C58.1361 24.4782 57.7492 24.6877 57.4315 24.9883L55.6175 32.9086L55.9085 32.9657C55.995 32.9879 56.0835 33.0023 56.172 33.0087C56.2856 33.0234 56.3999 33.0293 56.5143 33.0265L57.0037 33.0157L57.004 33.0159ZM60.6081 20.6351C61.4004 20.6161 62.187 20.7849 62.9081 21.1284C63.5341 21.4401 64.0841 21.8958 64.5169 22.4617C64.9599 23.0469 65.2857 23.7188 65.4752 24.4381C65.6827 25.2312 65.785 26.05 65.7798 26.8722C65.7789 29.4302 64.8293 31.888 63.1306 33.7311C62.307 34.6132 61.3272 35.3194 60.2453 35.8111C59.111 36.3325 57.884 36.5983 56.6446 36.5904H55.7683C55.292 36.5741 54.8163 36.5314 54.3444 36.4617C53.768 36.3744 53.1967 36.2553 52.6331 36.1042C52.0422 35.9578 51.4685 35.7445 50.9219 35.4681L55.7309 14.4307L60.0265 13.7158L58.3152 21.1822C58.6716 21.0139 59.0415 20.8788 59.4208 20.7785C59.8116 20.6791 60.2131 20.6297 60.6153 20.632L60.6084 20.6356L60.6081 20.6351Z" fill="#4D4D4D"/>
  <path d="M72.2146 19.1017C71.6547 19.1073 71.1088 18.92 70.6605 18.5692C70.1854 18.1768 69.9286 17.563 69.9759 16.9323C69.974 16.5388 70.0543 16.1495 70.212 15.792C70.3631 15.4439 70.5753 15.1286 70.8385 14.8628C71.1014 14.6018 71.406 14.3913 71.7387 14.2408C72.0847 14.0856 72.4576 14.0066 72.8339 14.0084C73.3898 14.0066 73.9305 14.195 74.3741 14.5445C74.8483 14.9377 75.1048 15.5509 75.0587 16.1814C75.0617 16.5759 74.9823 16.9663 74.8261 17.325C74.675 17.6714 74.4638 17.9851 74.2031 18.2506C73.9409 18.5126 73.6363 18.7231 73.3028 18.8726C72.9568 19.0278 72.584 19.1058 72.2077 19.1014H72.2146V19.1017ZM70.2192 36.1827L66.1118 36.1827L69.5824 20.9566L73.7137 20.9566L70.2189 36.1827H70.2192Z" fill="#4D4D4D"/>
  <path d="M77.3077 17.1647L81.6031 16.4714L80.5353 20.9571L85.1358 20.9571L84.307 24.4883H79.7445L78.5261 29.7995C78.4206 30.2061 78.3553 30.6229 78.3309 31.0437C78.3058 31.3839 78.3541 31.7256 78.4711 32.044C78.5857 32.3296 78.7979 32.5604 79.0668 32.6909C79.4537 32.8695 79.8761 32.9508 80.299 32.9269C80.7322 32.9284 81.1644 32.8839 81.5893 32.7946C82.0169 32.7074 82.438 32.588 82.8488 32.4372L83.1569 35.7396C82.5672 35.9609 81.9646 36.1439 81.353 36.2864C80.5971 36.454 79.8255 36.5319 79.053 36.5188C77.7762 36.5188 76.7904 36.3186 76.0854 35.9254C75.4259 35.5752 74.8975 35.0039 74.5863 34.3026C74.2824 33.5587 74.1498 32.7506 74.1996 31.9436C74.2457 30.9968 74.3751 30.0565 74.5863 29.1342L77.3075 17.1503V17.1647H77.3077Z" fill="#4D4D4D"/>
  <path d="M84.985 30.1029C84.9763 28.8398 85.1824 27.5845 85.5942 26.3967C85.9803 25.2734 86.5735 24.2402 87.3397 23.3552C88.1122 22.4774 89.0517 21.7787 90.0983 21.3032C91.2398 20.7885 92.4727 20.5314 93.716 20.5494C94.4666 20.5402 95.2158 20.6228 95.9477 20.7957C96.5631 20.9481 97.1617 21.166 97.7344 21.4463L96.3073 24.7953C95.9376 24.638 95.5542 24.5027 95.1572 24.3771C94.6838 24.2394 94.1936 24.1756 93.7024 24.1877C92.4614 24.1408 91.2676 24.6887 90.461 25.6746C89.6601 26.6584 89.2582 27.9808 89.2562 29.642C89.2185 30.4845 89.4314 31.3183 89.8654 32.0298C90.2713 32.6374 91.0202 32.9408 92.1107 32.9408C92.6334 32.9413 93.1544 32.8826 93.6647 32.7658C94.1199 32.6644 94.566 32.5198 94.9962 32.3332L95.3008 35.779C94.7409 36.0003 94.1697 36.1889 93.5896 36.3433C92.853 36.5168 92.0994 36.5986 91.3443 36.5867C90.342 36.6171 89.3444 36.4408 88.4075 36.0682C87.6627 35.7548 86.9922 35.2756 86.4429 34.6639C85.9217 34.071 85.5365 33.3618 85.3169 32.5905C85.0845 31.7789 84.9692 30.9356 84.9746 30.0887L84.985 30.1031V30.1029Z" fill="#4D4D4D"/>
  <path d="M105.251 24.2021C104.672 24.1936 104.106 24.3858 103.642 24.7489C103.172 25.1288 102.778 25.6015 102.482 26.1393C102.156 26.7119 101.912 27.3311 101.756 27.977C101.606 28.5961 101.527 29.2318 101.524 29.8707C101.487 30.6507 101.639 31.4274 101.965 32.1297C102.263 32.6693 102.797 32.941 103.574 32.941C104.154 32.9513 104.721 32.7576 105.183 32.3906C105.654 32.0108 106.049 31.538 106.346 31.0007C106.667 30.4274 106.906 29.8085 107.055 29.1631C107.204 28.5426 107.282 27.9055 107.288 27.2652C107.326 26.4857 107.173 25.7083 106.846 25.0063C106.548 24.4702 106.011 24.1985 105.237 24.1985L105.251 24.2021H105.251ZM103.197 36.5901C102.325 36.6112 101.458 36.4532 100.644 36.1253C99.959 35.8433 99.3473 35.3981 98.8572 34.8242C98.3751 34.2463 98.0121 33.5713 97.7894 32.8407C97.5474 32.0216 97.4315 31.1672 97.4471 30.3103C97.4498 29.1301 97.6309 27.9574 97.9848 26.8362C98.3281 25.7078 98.8641 24.6535 99.5657 23.7232C100.27 22.7932 101.147 22.0201 102.143 21.4501C103.215 20.8482 104.417 20.544 105.634 20.5672C106.501 20.5507 107.364 20.7087 108.174 21.0319C108.86 21.3094 109.475 21.7486 109.971 22.315C110.45 22.8946 110.812 23.5693 111.035 24.2986C111.279 25.1185 111.395 25.9741 111.378 26.8326C111.374 28.0117 111.198 29.1836 110.854 30.3067C110.517 31.4366 109.99 32.4951 109.3 33.4341C108.605 34.368 107.732 35.141 106.736 35.7038C105.648 36.3088 104.43 36.614 103.197 36.5901Z" fill="#4D4D4D"/>
  <path d="M117.864 19.1017C117.305 19.1078 116.759 18.9205 116.313 18.5692C115.838 18.1768 115.581 17.563 115.629 16.9323C115.627 16.5388 115.707 16.1495 115.865 15.792C116.011 15.4457 116.218 15.1309 116.474 14.8628C116.738 14.6026 117.044 14.3921 117.377 14.2408C117.722 14.0859 118.094 14.0069 118.47 14.0084C119.03 14.0033 119.576 14.1922 120.024 14.5445C120.498 14.9377 120.754 15.5509 120.708 16.1814C120.709 16.5764 120.627 16.9668 120.468 17.325C120.32 17.6716 120.109 17.9858 119.849 18.2506C119.587 18.5126 119.282 18.7231 118.949 18.8726C118.606 19.0263 118.237 19.1042 117.863 19.1014L117.864 19.1017ZM115.872 36.1827L111.765 36.1827L115.229 20.9565L119.363 20.9565L115.872 36.1827Z" fill="#4D4D4D"/>
  <path d="M122.32 21.6501C122.632 21.5572 122.978 21.4427 123.347 21.3179C123.717 21.1928 124.148 21.0783 124.623 20.9604C125.145 20.8449 125.672 20.7579 126.202 20.6995C126.86 20.6269 127.522 20.5922 128.184 20.5958C130.347 20.5958 131.839 21.252 132.661 22.5652C133.152 23.3516 133.401 24.311 133.407 25.4435V25.5251C133.404 26.2616 133.298 27.0704 133.092 27.9513L131.206 36.1717H127.085L128.916 28.1224C129.025 27.6224 129.115 27.1363 129.18 26.661C129.251 26.2495 129.251 25.8282 129.18 25.4173C129.112 25.0737 128.93 24.7665 128.666 24.5487C128.301 24.2986 127.866 24.1818 127.431 24.2163C126.882 24.2173 126.335 24.276 125.798 24.3915L123.108 36.1861L118.962 36.1861L122.32 21.6501Z" fill="#4D4D4D"/>
  <path d="M57.1949 46.0478C57.1676 46.1522 57.1403 46.323 57.1131 46.5602C57.0858 46.7974 57.0722 47.0204 57.0722 47.2291C57.0722 47.5043 57.0949 47.7748 57.1403 48.0404C57.1858 48.2966 57.2585 48.5576 57.3584 48.8233L55.8863 49.051C55.7773 48.8233 55.691 48.5813 55.6274 48.3251C55.4002 48.5339 55.1185 48.7236 54.7823 48.8944C54.4551 49.0558 54.0826 49.1364 53.6646 49.1364C53.2375 49.1364 52.8695 49.0652 52.5605 48.9229C52.2606 48.7711 52.0153 48.5671 51.8245 48.3109C51.6336 48.0452 51.4928 47.7368 51.4019 47.3857C51.3111 47.0346 51.2656 46.6551 51.2656 46.247C51.2656 45.5544 51.3838 44.9091 51.62 44.3113C51.8563 43.7135 52.1834 43.1964 52.6014 42.7599C53.0285 42.3234 53.5328 41.9818 54.1144 41.7351C54.6959 41.4789 55.332 41.3508 56.0226 41.3508C56.377 41.3508 56.7314 41.384 57.0858 41.4504C57.4493 41.5074 57.8128 41.6212 58.1762 41.792L57.1949 46.0478ZM56.2952 42.8311C56.1226 42.7931 55.9272 42.7741 55.7091 42.7741C55.3002 42.7741 54.9231 42.869 54.5778 43.0588C54.2325 43.2391 53.9326 43.4858 53.6782 43.7989C53.4329 44.1026 53.242 44.4536 53.1057 44.8522C52.9694 45.2507 52.9013 45.6682 52.9013 46.1047C52.9013 46.323 52.9194 46.527 52.9558 46.7167C52.9921 46.9065 53.0512 47.0726 53.133 47.2149C53.2239 47.3572 53.342 47.4711 53.4874 47.5565C53.6328 47.6419 53.8191 47.6846 54.0462 47.6846C54.337 47.6846 54.5914 47.6229 54.8095 47.4996C55.0367 47.3667 55.2457 47.1912 55.4365 46.9729C55.4456 46.7262 55.4638 46.4938 55.491 46.2755C55.5274 46.0573 55.5728 45.839 55.6274 45.6208L56.2952 42.8311Z" fill="#4D4D4D"/>
  <path d="M58.689 46.1189C58.689 45.4737 58.7844 44.8617 58.9752 44.2828C59.1751 43.6945 59.4568 43.1821 59.8203 42.7457C60.1838 42.2997 60.629 41.9486 61.1561 41.6924C61.6831 41.4362 62.2829 41.3081 62.9553 41.3081C63.3097 41.3081 63.6323 41.3413 63.9231 41.4077C64.2229 41.4647 64.5046 41.5548 64.7681 41.6782L64.182 43.0588C64.0185 42.9829 63.8367 42.9165 63.6368 42.8595C63.4369 42.8026 63.1916 42.7741 62.9008 42.7741C62.51 42.7741 62.1556 42.8595 61.8376 43.0303C61.5286 43.1916 61.2651 43.4146 61.047 43.6993C60.8289 43.9839 60.6608 44.3208 60.5427 44.7098C60.4246 45.0989 60.3655 45.5117 60.3655 45.9481C60.3655 46.1949 60.3882 46.4226 60.4337 46.6313C60.4882 46.8306 60.57 47.0109 60.679 47.1722C60.7971 47.324 60.9562 47.4426 61.1561 47.528C61.356 47.6134 61.6059 47.6561 61.9058 47.6561C62.2147 47.6561 62.51 47.6134 62.7917 47.528C63.0825 47.4426 63.3051 47.3572 63.4596 47.2718L63.5959 48.6809C63.3869 48.7853 63.1098 48.885 62.7645 48.9798C62.4192 49.0842 62.0284 49.1364 61.5923 49.1364C61.0925 49.1364 60.6608 49.0605 60.2974 48.9087C59.9339 48.7474 59.6295 48.5339 59.3841 48.2682C59.1479 47.993 58.9707 47.6751 58.8525 47.3145C58.7435 46.9445 58.689 46.5459 58.689 46.1189Z" fill="#4D4D4D"/>
  <path d="M64.5942 46.1189C64.5942 45.4737 64.6897 44.8617 64.8805 44.2829C65.0804 43.6945 65.3621 43.1821 65.7256 42.7457C66.089 42.2997 66.5343 41.9486 67.0613 41.6924C67.5884 41.4362 68.1881 41.3081 68.8606 41.3081C69.2149 41.3081 69.5375 41.3413 69.8283 41.4077C70.1282 41.4647 70.4099 41.5548 70.6734 41.6782L70.0873 43.0588C69.9237 42.9829 69.742 42.9165 69.5421 42.8595C69.3422 42.8026 69.0968 42.7741 68.806 42.7741C68.4153 42.7741 68.0609 42.8595 67.7429 43.0303C67.4339 43.1916 67.1704 43.4146 66.9523 43.6993C66.7342 43.984 66.5661 44.3208 66.448 44.7098C66.3298 45.0989 66.2708 45.5117 66.2708 45.9481C66.2708 46.1949 66.2935 46.4226 66.3389 46.6313C66.3935 46.8306 66.4752 47.0109 66.5843 47.1722C66.7024 47.324 66.8614 47.4426 67.0613 47.528C67.2613 47.6134 67.5111 47.6561 67.811 47.6561C68.12 47.6561 68.4153 47.6134 68.697 47.528C68.9878 47.4426 69.2104 47.3572 69.3649 47.2718L69.5012 48.6809C69.2922 48.7853 69.015 48.885 68.6697 48.9798C68.3244 49.0842 67.9337 49.1364 67.4975 49.1364C66.9977 49.1364 66.5661 49.0605 66.2026 48.9087C65.8392 48.7474 65.5347 48.5339 65.2894 48.2682C65.0531 47.993 64.8759 47.6751 64.7578 47.3145C64.6488 46.9445 64.5942 46.5459 64.5942 46.1189Z" fill="#4D4D4D"/>
  <path d="M70.4995 46.247C70.4995 45.6113 70.5949 44.9993 70.7857 44.411C70.9857 43.8132 71.2674 43.2865 71.6308 42.8311C72.0034 42.3661 72.4487 41.996 72.9666 41.7209C73.4846 41.4457 74.0661 41.3081 74.7113 41.3081C75.4019 41.3081 75.938 41.4931 76.3197 41.8632C76.7013 42.2333 76.8922 42.7077 76.8922 43.2865C76.8922 43.8843 76.7513 44.3683 76.4696 44.7383C76.1879 45.1084 75.8199 45.3978 75.3656 45.6065C74.9203 45.8153 74.4114 45.9576 73.839 46.0335C73.2756 46.1095 72.7031 46.1569 72.1215 46.1759C72.1124 46.1949 72.1079 46.2138 72.1079 46.2328L72.1079 46.3751C72.1079 47.2386 72.6304 47.6704 73.6754 47.6704C74.2933 47.6704 74.9112 47.5375 75.5291 47.2718L75.6654 48.6667C75.4473 48.7711 75.1384 48.8755 74.7386 48.9798C74.3387 49.0842 73.8844 49.1364 73.3755 49.1364C72.8667 49.1364 72.4305 49.0605 72.067 48.9087C71.7035 48.7569 71.4037 48.5481 71.1674 48.2824C70.9402 48.0167 70.7721 47.7131 70.6631 47.3715C70.554 47.0204 70.4995 46.6456 70.4995 46.247ZM74.466 42.7172C74.1933 42.7172 73.9344 42.7741 73.689 42.888C73.4437 43.0019 73.2256 43.1584 73.0348 43.3577C72.8439 43.557 72.6758 43.7942 72.5304 44.0694C72.3941 44.335 72.2942 44.6245 72.2306 44.9376C73.321 44.8996 74.1116 44.762 74.6023 44.5248C75.102 44.2876 75.3519 43.9318 75.3519 43.4573C75.3519 43.2675 75.2838 43.0967 75.1475 42.9449C75.0203 42.7931 74.7931 42.7172 74.466 42.7172Z" fill="#4D4D4D"/>
  <path d="M78.8667 47.5992C78.9575 47.6182 79.0529 47.6324 79.1529 47.6419C79.2528 47.6419 79.3528 47.6419 79.4528 47.6419C79.8889 47.6419 80.2797 47.5565 80.625 47.3857C80.9794 47.2054 81.2792 46.9682 81.5246 46.674C81.7699 46.3704 81.9562 46.0193 82.0834 45.6208C82.2197 45.2128 82.2879 44.781 82.2879 44.3256C82.2879 44.1168 82.2652 43.9223 82.2197 43.742C82.1743 43.5522 82.0971 43.3862 81.988 43.2438C81.8881 43.1015 81.7472 42.9876 81.5655 42.9022C81.3928 42.8168 81.1702 42.7741 80.8976 42.7741C80.7158 42.7741 80.5432 42.7884 80.3796 42.8168C80.2161 42.8358 80.0707 42.8643 79.9435 42.9022L78.8667 47.5992ZM83.9372 44.169C83.9372 44.8427 83.8327 45.4785 83.6237 46.0763C83.4238 46.6646 83.1239 47.1817 82.7241 47.6277C82.3333 48.0737 81.8517 48.4295 81.2792 48.6952C80.7158 48.9514 80.0661 49.0795 79.3301 49.0795C79.2029 49.0795 79.0711 49.07 78.9348 49.051C78.8076 49.0415 78.6804 49.0273 78.5532 49.0083L77.9534 51.5703L76.3041 51.5703L78.5532 41.792C78.9257 41.6497 79.3392 41.5358 79.7935 41.4504C80.257 41.365 80.7204 41.3223 81.1838 41.3223C81.6563 41.3223 82.0653 41.3982 82.4106 41.5501C82.7649 41.6924 83.0512 41.8917 83.2693 42.1479C83.4964 42.4041 83.6646 42.7077 83.7736 43.0588C83.8826 43.4004 83.9372 43.7705 83.9372 44.169Z" fill="#4D4D4D"/>
  <path d="M86.3696 39.5289L88.087 39.2443L87.569 41.4931L89.8998 41.4931L89.5727 42.9165L87.2419 42.9165L86.5604 45.8628C86.5149 46.0715 86.4831 46.2471 86.465 46.3894C86.4468 46.5222 86.4377 46.6456 86.4377 46.7594C86.4377 46.8733 86.4468 46.9872 86.465 47.101C86.4922 47.2054 86.5377 47.3003 86.6013 47.3857C86.674 47.4616 86.7739 47.528 86.9011 47.585C87.0374 47.6324 87.2192 47.6561 87.4464 47.6561C87.6917 47.6561 87.928 47.6229 88.1551 47.5565C88.3823 47.4901 88.5822 47.4189 88.7549 47.343L88.8775 48.7236C88.6685 48.8185 88.405 48.9087 88.087 48.9941C87.7689 49.0795 87.3964 49.1222 86.9693 49.1222C86.1878 49.1222 85.629 48.9466 85.2927 48.5955C84.9565 48.235 84.7884 47.7463 84.7884 47.1295C84.7884 46.9018 84.8021 46.6693 84.8293 46.4321C84.8657 46.1854 84.9156 45.9244 84.9793 45.6493L86.3696 39.5289Z" fill="#4D4D4D"/>
  <path d="M89.9866 46.2471C89.9866 45.6113 90.082 44.9993 90.2729 44.411C90.4728 43.8132 90.7545 43.2865 91.1179 42.8311C91.4905 42.3661 91.9358 41.996 92.4537 41.7209C92.9717 41.4457 93.5532 41.3081 94.1984 41.3081C94.889 41.3081 95.4251 41.4931 95.8068 41.8632C96.1884 42.2333 96.3793 42.7077 96.3793 43.2865C96.3793 43.8843 96.2384 44.3683 95.9567 44.7383C95.675 45.1084 95.307 45.3978 94.8527 45.6066C94.4074 45.8153 93.8985 45.9576 93.3261 46.0336C92.7627 46.1095 92.1902 46.1569 91.6086 46.1759C91.5995 46.1949 91.595 46.2138 91.595 46.2328L91.595 46.3752C91.595 47.2386 92.1175 47.6704 93.1625 47.6704C93.7804 47.6704 94.3983 47.5375 95.0162 47.2718L95.1525 48.6667C94.9345 48.7711 94.6255 48.8755 94.2257 48.9798C93.8258 49.0842 93.3715 49.1364 92.8626 49.1364C92.3538 49.1364 91.9176 49.0605 91.5541 48.9087C91.1906 48.7569 90.8908 48.5481 90.6545 48.2824C90.4273 48.0167 90.2592 47.7131 90.1502 47.3715C90.0411 47.0204 89.9866 46.6456 89.9866 46.2471ZM93.9531 42.7172C93.6805 42.7172 93.4215 42.7741 93.1761 42.888C92.9308 43.0019 92.7127 43.1584 92.5219 43.3577C92.331 43.557 92.1629 43.7942 92.0175 44.0694C91.8812 44.335 91.7813 44.6245 91.7177 44.9376C92.8081 44.8996 93.5987 44.762 94.0894 44.5248C94.5891 44.2876 94.839 43.9318 94.839 43.4573C94.839 43.2675 94.7709 43.0967 94.6346 42.9449C94.5074 42.7931 94.2802 42.7172 93.9531 42.7172Z" fill="#4D4D4D"/>
  <path d="M99.2164 49.1364C98.7893 49.1364 98.4213 49.0652 98.1124 48.9229C97.8034 48.7711 97.549 48.5671 97.3491 48.3109C97.1582 48.0547 97.0174 47.751 96.9265 47.4C96.8356 47.0489 96.7902 46.6693 96.7902 46.2613C96.7902 45.6255 96.8947 45.0135 97.1037 44.4252C97.3218 43.8274 97.6262 43.3055 98.0169 42.8595C98.4168 42.4041 98.9029 42.0435 99.4754 41.7778C100.048 41.5026 100.698 41.365 101.425 41.365C101.515 41.365 101.624 41.3698 101.752 41.3793C101.879 41.3887 102.02 41.4125 102.174 41.4504L102.924 38.1768L104.641 37.8921L102.774 45.9624C102.729 46.1806 102.692 46.4036 102.665 46.6314C102.647 46.8496 102.638 47.0584 102.638 47.2576C102.638 47.5138 102.66 47.77 102.706 48.0262C102.751 48.2824 102.824 48.5481 102.924 48.8233L101.452 49.051C101.352 48.8517 101.266 48.6098 101.193 48.3251C100.966 48.5339 100.689 48.7236 100.361 48.8944C100.034 49.0558 99.6526 49.1364 99.2164 49.1364ZM101.847 42.8453C101.674 42.8073 101.465 42.7884 101.22 42.7884C100.802 42.7884 100.42 42.8832 100.075 43.073C99.7298 43.2533 99.4345 43.5 99.1892 43.8132C98.9438 44.1168 98.753 44.4679 98.6167 44.8664C98.4895 45.265 98.4259 45.6777 98.4259 46.1047C98.4259 46.323 98.444 46.527 98.4804 46.7168C98.5258 46.9065 98.594 47.0726 98.6848 47.2149C98.7757 47.3573 98.8938 47.4711 99.0392 47.5565C99.1937 47.6419 99.38 47.6846 99.5981 47.6846C99.8889 47.6846 100.143 47.6229 100.361 47.4996C100.589 47.3762 100.802 47.2054 101.002 46.9872C101.011 46.7879 101.029 46.5792 101.057 46.3609C101.093 46.1427 101.134 45.9292 101.179 45.7204L101.847 42.8453Z" fill="#4D4D4D"/>
  <path d="M107.116 48.9372L109.583 38.1768L111.301 37.8921L110.456 41.5501C110.637 41.5026 110.833 41.4599 111.042 41.422C111.26 41.3745 111.473 41.3508 111.682 41.3508C112.082 41.3508 112.423 41.4125 112.705 41.5358C112.995 41.6497 113.232 41.811 113.413 42.0198C113.604 42.2285 113.741 42.48 113.822 42.7741C113.913 43.0683 113.959 43.3862 113.959 43.7278C113.959 44.1358 113.904 44.5675 113.795 45.023L112.895 48.9372L111.246 48.9372L112.105 45.208C112.15 44.9898 112.196 44.7668 112.241 44.5391C112.287 44.3113 112.309 44.0978 112.309 43.8986C112.309 43.5854 112.228 43.3245 112.064 43.1157C111.91 42.8975 111.61 42.7884 111.164 42.7884C110.983 42.7884 110.801 42.8073 110.619 42.8453C110.437 42.8738 110.274 42.9117 110.129 42.9592L108.765 48.9372L107.116 48.9372Z" fill="#4D4D4D"/>
  <path d="M114.721 46.2471C114.721 45.6113 114.816 44.9993 115.007 44.411C115.207 43.8132 115.488 43.2865 115.852 42.8311C116.224 42.3661 116.67 41.996 117.188 41.7209C117.706 41.4457 118.287 41.3081 118.932 41.3081C119.623 41.3081 120.159 41.4931 120.541 41.8632C120.922 42.2333 121.113 42.7077 121.113 43.2865C121.113 43.8843 120.972 44.3683 120.691 44.7383C120.409 45.1084 120.041 45.3978 119.587 45.6066C119.141 45.8153 118.632 45.9576 118.06 46.0336C117.497 46.1095 116.924 46.1569 116.343 46.1759C116.334 46.1949 116.329 46.2138 116.329 46.2328L116.329 46.3752C116.329 47.2386 116.851 47.6704 117.896 47.6704C118.514 47.6704 119.132 47.5375 119.75 47.2719L119.886 48.6667C119.668 48.7711 119.359 48.8755 118.96 48.9799C118.56 49.0842 118.105 49.1364 117.597 49.1364C117.088 49.1364 116.652 49.0605 116.288 48.9087C115.925 48.7569 115.625 48.5481 115.388 48.2824C115.161 48.0167 114.993 47.7131 114.884 47.3715C114.775 47.0204 114.721 46.6456 114.721 46.2471ZM118.687 42.7172C118.414 42.7172 118.155 42.7741 117.91 42.888C117.665 43.0019 117.447 43.1584 117.256 43.3577C117.065 43.557 116.897 43.7942 116.752 44.0694C116.615 44.335 116.515 44.6245 116.452 44.9376C117.542 44.8996 118.333 44.762 118.823 44.5248C119.323 44.2876 119.573 43.9318 119.573 43.4573C119.573 43.2676 119.505 43.0967 119.369 42.9449C119.241 42.7931 119.014 42.7172 118.687 42.7172Z" fill="#4D4D4D"/>
  <path d="M126.599 43.0161C126.417 42.9497 126.222 42.8975 126.013 42.8595C125.804 42.8216 125.558 42.8026 125.276 42.8026C125.122 42.8026 124.958 42.8168 124.786 42.8453C124.613 42.8643 124.468 42.8927 124.35 42.9307L122.973 48.9372L121.324 48.9372L122.959 41.8347C123.341 41.7019 123.754 41.588 124.2 41.4931C124.645 41.3888 125.127 41.3366 125.644 41.3366C125.754 41.3366 125.876 41.3461 126.013 41.365C126.149 41.3745 126.281 41.3888 126.408 41.4077C126.544 41.4267 126.667 41.4504 126.776 41.4789C126.894 41.5074 126.994 41.5406 127.076 41.5785L126.599 43.0161Z" fill="#4D4D4D"/>
  <path d="M126.493 46.2471C126.493 45.6113 126.588 44.9993 126.779 44.411C126.979 43.8132 127.261 43.2865 127.624 42.8311C127.997 42.3661 128.442 41.996 128.96 41.7209C129.478 41.4457 130.06 41.3081 130.705 41.3081C131.395 41.3081 131.932 41.4931 132.313 41.8632C132.695 42.2333 132.886 42.7077 132.886 43.2865C132.886 43.8843 132.745 44.3683 132.463 44.7383C132.182 45.1084 131.813 45.3978 131.359 45.6066C130.914 45.8153 130.405 45.9576 129.833 46.0336C129.269 46.1095 128.697 46.1569 128.115 46.1759C128.106 46.1949 128.101 46.2138 128.101 46.2328L128.101 46.3752C128.101 47.2386 128.624 47.6704 129.669 47.6704C130.287 47.6704 130.905 47.5375 131.523 47.2719L131.659 48.6667C131.441 48.7711 131.132 48.8755 130.732 48.9799C130.332 49.0842 129.878 49.1364 129.369 49.1364C128.86 49.1364 128.424 49.0605 128.061 48.9087C127.697 48.7569 127.397 48.5481 127.161 48.2824C126.934 48.0167 126.766 47.7131 126.657 47.3715C126.548 47.0204 126.493 46.6456 126.493 46.2471ZM130.46 42.7172C130.187 42.7172 129.928 42.7741 129.683 42.888C129.437 43.0019 129.219 43.1584 129.028 43.3577C128.838 43.557 128.669 43.7942 128.524 44.0694C128.388 44.3351 128.288 44.6245 128.224 44.9376C129.315 44.8996 130.105 44.762 130.596 44.5248C131.096 44.2876 131.346 43.9318 131.346 43.4573C131.346 43.2676 131.277 43.0968 131.141 42.9449C131.014 42.7931 130.787 42.7172 130.46 42.7172Z" fill="#4D4D4D"/>
  <path d="M46.4578 35.4916C44.224 44.8977 35.1108 50.6316 26.1028 48.299C17.0951 45.9668 11.6041 36.4502 13.8378 27.0441C16.0716 17.6376 25.1848 11.9032 34.1925 14.2358C34.2076 14.2398 34.2231 14.2437 34.2382 14.248C43.2221 16.6023 48.6878 26.1036 46.4578 35.4916Z" fill="#4D4D4D"/>
  <path d="M33.9611 28.7138C33.4359 30.9074 30.2328 29.783 29.193 29.5145L30.1118 25.6761C31.1356 25.9394 34.4863 26.4436 33.9452 28.7138H33.9611ZM33.3887 34.9164C32.8215 37.3066 28.9673 36.0131 27.7173 35.689L28.7306 31.4503C29.9806 31.7792 33.9819 32.4207 33.3887 34.9164ZM37.5897 28.747C37.9205 26.4109 36.2191 25.1553 33.9139 24.3219L34.67 21.1578L32.806 20.6754L32.071 23.7573C31.5878 23.6314 31.0891 23.5105 30.5954 23.3953L31.3304 20.2806L29.4872 19.7981L28.731 22.9621L27.5547 22.6881L25.0079 22.0245L24.5194 24.081C24.5194 24.081 25.8847 24.4099 25.8586 24.432C26.38 24.498 26.7604 24.9816 26.7199 25.5288L25.8586 29.1315C25.9233 29.1469 25.9868 29.1686 26.0477 29.1975L25.8533 29.1426L24.6506 34.1931C24.538 34.5626 24.1599 34.7659 23.8056 34.6483H23.8052C23.8052 34.6755 22.4607 34.3028 22.4607 34.3028L21.5469 36.4964L23.9466 37.1163L25.2594 37.4728L24.4979 40.6696L26.3411 41.1521L27.0973 37.988C27.5941 38.1305 28.0829 38.262 28.5624 38.3828L27.8168 41.5579L29.66 42.0349L30.4214 38.8436C33.5721 39.4638 35.9298 39.2163 36.9276 36.2445C37.7311 33.8535 36.8856 32.4772 35.2315 31.5778C36.4391 31.2872 37.3322 30.481 37.5893 28.7482L37.5897 28.747Z" fill="white"/>
</svg>