<svg width="48" height="72" viewBox="0 0 48 72" fill="none" xmlns="http://www.w3.org/2000/svg">
<g filter="url(#filter0_d_181_4317)">
<rect x="4" y="2" width="40" height="64" rx="6" fill="white"/>
<rect x="5" y="3" width="38" height="62" rx="5" stroke="#110000" stroke-width="2"/>
<path d="M20.9378 14C21.4616 14 21.869 13.5571 21.869 12.9965C21.869 12.4429 21.4616 12 20.9378 12C20.4139 12 20 12.4429 20 12.9965C20 13.5571 20.4139 14 20.9378 14Z" fill="#727F96"/>
<path d="M24.0032 14C24.5271 14 24.9345 13.5571 24.9345 12.9965C24.9345 12.4429 24.5271 12 24.0032 12C23.4794 12 23.0655 12.4429 23.0655 12.9965C23.0655 13.5571 23.4794 14 24.0032 14Z" fill="#727F96"/>
<path d="M27.0687 14C27.5926 14 28 13.5571 28 12.9965C28 12.4429 27.5926 12 27.0687 12C26.5449 12 26.131 12.4429 26.131 12.9965C26.131 13.5571 26.5449 14 27.0687 14Z" fill="#727F96"/>
</g>
<defs>
<filter id="filter0_d_181_4317" x="0" y="0" width="48" height="72" filterUnits="userSpaceOnUse" color-interpolation-filters="sRGB">
<feFlood flood-opacity="0" result="BackgroundImageFix"/>
<feColorMatrix in="SourceAlpha" type="matrix" values="0 0 0 0 0 0 0 0 0 0 0 0 0 0 0 0 0 0 127 0" result="hardAlpha"/>
<feOffset dy="2"/>
<feGaussianBlur stdDeviation="2"/>
<feColorMatrix type="matrix" values="0 0 0 0 0 0 0 0 0 0 0 0 0 0 0 0 0 0 0.07 0"/>
<feBlend mode="normal" in2="BackgroundImageFix" result="effect1_dropShadow_181_4317"/>
<feBlend mode="normal" in="SourceGraphic" in2="effect1_dropShadow_181_4317" result="shape"/>
</filter>
</defs>
</svg>
