<svg xmlns="http://www.w3.org/2000/svg" width="16" height="16" viewBox="0 0 16 16" fill="none">
  <path d="M0 3.512C0 2.125 0.826182 1 1.84364 1H14.1564C15.1738 1 16 2.125 16 3.512V12.488C15.999 12.8194 15.9504 13.1473 15.8572 13.4529C15.764 13.7585 15.6279 14.0359 15.4567 14.2692C15.2855 14.5024 15.0825 14.6871 14.8594 14.8125C14.6363 14.9378 14.3974 15.0016 14.1564 15H1.84364C0.825455 15 0 13.875 0 12.488V3.512ZM0.727273 12.472C0.727273 13.352 1.20218 14 1.84655 14H7.98909V2H1.84655C1.20218 2 0.727273 2.647 0.727273 3.528V12.472ZM9.84582 12.375H11.3607V9.042H11.3775C11.664 9.772 12.2371 10.043 12.7665 10.043C14.0713 10.043 14.7687 8.536 14.7687 6.723C14.7687 5.239 14.1047 3.625 12.8924 3.625C12.2022 3.625 11.5636 4.015 11.2596 4.874H11.2422V3.768H9.84582V12.375ZM13.2036 6.77C13.2036 7.747 12.8589 8.419 12.2865 8.419C11.7818 8.419 11.3607 7.747 11.3607 6.852C11.3607 5.934 11.7302 5.25 12.2865 5.25C12.8764 5.25 13.2044 5.958 13.2044 6.77H13.2036Z" fill="#727F96"/>
  <path d="M6.76789 3.765V9.095C6.76789 11.575 5.88134 12.375 4.08934 12.375C3.51201 12.3773 2.93841 12.2478 2.39188 11.992L2.46898 10.346C2.93734 10.659 3.33007 10.844 3.97079 10.844C4.85734 10.844 5.33516 10.277 5.33516 9.094V8.77H5.3177C4.95116 9.477 4.43916 9.802 3.82388 9.802C2.60498 9.802 1.8457 8.551 1.8457 6.766C1.8457 4.97 2.46898 3.625 3.85007 3.625C4.50679 3.625 5.03552 4.112 5.36134 4.855H5.37734V3.765H6.76789ZM3.43188 6.732C3.43188 7.67 3.84207 8.202 4.30243 8.202C4.84788 8.202 5.28425 7.577 5.28425 6.65C5.28425 5.978 4.99334 5.225 4.30243 5.225C3.73079 5.225 3.43188 5.909 3.43188 6.732Z" fill="#EE3525"/>
</svg>