<svg width="135" height="72" viewBox="0 0 135 72" fill="none" xmlns="http://www.w3.org/2000/svg">
<g filter="url(#filter0_d_476_1545)">
<rect x="4" y="2" width="127" height="64" rx="6" fill="white"/>
<rect x="5" y="3" width="125" height="62" rx="5" stroke="#4D4D4D" stroke-width="2"/>
<path d="M16 21.512C16 20.125 16.8262 19 17.8436 19H30.1564C31.1738 19 32 20.125 32 21.512V30.488C31.999 30.8194 31.9504 31.1473 31.8572 31.4529C31.764 31.7585 31.6279 32.0359 31.4567 32.2692C31.2855 32.5024 31.0825 32.6871 30.8594 32.8125C30.6363 32.9378 30.3974 33.0016 30.1564 33H17.8436C16.8255 33 16 31.875 16 30.488V21.512ZM16.7273 30.472C16.7273 31.352 17.2022 32 17.8465 32H23.9891V20H17.8465C17.2022 20 16.7273 20.647 16.7273 21.528V30.472ZM25.8458 30.375H27.3607V27.042H27.3775C27.664 27.772 28.2371 28.043 28.7665 28.043C30.0713 28.043 30.7687 26.536 30.7687 24.723C30.7687 23.239 30.1047 21.625 28.8924 21.625C28.2022 21.625 27.5636 22.015 27.2596 22.874H27.2422V21.768H25.8458V30.375ZM29.2036 24.77C29.2036 25.747 28.8589 26.419 28.2865 26.419C27.7818 26.419 27.3607 25.747 27.3607 24.852C27.3607 23.934 27.7302 23.25 28.2865 23.25C28.8764 23.25 29.2044 23.958 29.2044 24.77H29.2036Z" fill="#727F96"/>
<path d="M22.7679 21.765V27.095C22.7679 29.575 21.8813 30.375 20.0893 30.375C19.512 30.3773 18.9384 30.2478 18.3919 29.992L18.469 28.346C18.9373 28.659 19.3301 28.844 19.9708 28.844C20.8573 28.844 21.3352 28.277 21.3352 27.094V26.77H21.3177C20.9512 27.477 20.4392 27.802 19.8239 27.802C18.605 27.802 17.8457 26.551 17.8457 24.766C17.8457 22.97 18.469 21.625 19.8501 21.625C20.5068 21.625 21.0355 22.112 21.3613 22.855H21.3773V21.765H22.7679ZM19.4319 24.732C19.4319 25.67 19.8421 26.202 20.3024 26.202C20.8479 26.202 21.2842 25.577 21.2842 24.65C21.2842 23.978 20.9933 23.225 20.3024 23.225C19.7308 23.225 19.4319 23.909 19.4319 24.732Z" fill="#EE3525"/>
<path d="M20.8306 47.1587C23.3379 47.1587 24.8232 45.667 24.8232 43.1787V42.1885H21.0146V43.4644H23.2236L23.2173 43.604C23.1855 44.8862 22.2334 45.7368 20.8496 45.7368C19.1992 45.7368 18.1646 44.4736 18.1646 42.3726V42.3662C18.1646 40.3096 19.1548 39.1035 20.8052 39.1035C21.9287 39.1035 22.7222 39.6748 23.0713 40.6587L23.0903 40.7285H24.7534L24.728 40.627C24.3789 38.9385 22.9697 37.6816 20.7988 37.6816C18.1582 37.6816 16.4951 39.4717 16.4951 42.3789V42.3853C16.4951 45.3433 18.1582 47.1587 20.8306 47.1587ZM26.8418 39.3066C27.3369 39.3066 27.7178 38.9131 27.7178 38.4434C27.7178 37.9609 27.3369 37.5737 26.8418 37.5737C26.3467 37.5737 25.9595 37.9609 25.9595 38.4434C25.9595 38.9131 26.3467 39.3066 26.8418 39.3066ZM26.0483 47H27.6289V40.2715H26.0483V47ZM28.9746 47H30.5552V43.0581C30.5552 42.1123 31.0947 41.5347 31.9897 41.5347C32.2563 41.5347 32.4976 41.5728 32.6309 41.6235V40.1953C32.5103 40.1636 32.3262 40.1318 32.1294 40.1318C31.3359 40.1318 30.7456 40.6079 30.5425 41.395H30.5107V40.2715H28.9746V47ZM36.1665 47.1333C38.1406 47.1333 39.4229 45.8193 39.4229 43.6357V43.623C39.4229 41.4521 38.1216 40.1318 36.1602 40.1318C34.2051 40.1318 32.9102 41.4648 32.9102 43.623V43.6357C32.9102 45.813 34.186 47.1333 36.1665 47.1333ZM36.1729 45.8574C35.1636 45.8574 34.5225 45.0513 34.5225 43.6357V43.623C34.5225 42.2266 35.1763 41.4141 36.1602 41.4141C37.1631 41.4141 37.8105 42.2202 37.8105 43.623V43.6357C37.8105 45.0449 37.1694 45.8574 36.1729 45.8574ZM40.4385 49.2217H42.019V45.8638H42.0508C42.4316 46.6509 43.1997 47.1333 44.1582 47.1333C45.8467 47.1333 46.9258 45.8003 46.9258 43.6421V43.6357C46.9258 41.4648 45.8467 40.1318 44.1392 40.1318C43.1743 40.1318 42.438 40.627 42.0508 41.4331H42.019V40.2715H40.4385V49.2217ZM43.6694 45.8003C42.6919 45.8003 42.0063 44.9561 42.0063 43.6421V43.6357C42.0063 42.3154 42.6919 41.4648 43.6694 41.4648C44.6787 41.4648 45.3135 42.29 45.3135 43.6357V43.6421C45.3135 44.9688 44.6787 45.8003 43.6694 45.8003ZM49.9282 47.1143C50.8169 47.1143 51.5659 46.6699 51.9531 45.9653H51.9912V47H53.5718V42.3726C53.5718 41.0205 52.4863 40.1318 50.8042 40.1318C49.0967 40.1318 48.062 41.0269 47.9668 42.2202L47.9604 42.2964H49.4268L49.4395 42.2393C49.541 41.7441 49.998 41.395 50.7471 41.395C51.5469 41.395 51.9912 41.8076 51.9912 42.4868V42.9502L50.2329 43.0581C48.6016 43.1597 47.6748 43.877 47.6748 45.0703V45.083C47.6748 46.2827 48.5825 47.1143 49.9282 47.1143ZM49.249 45.0195V45.0132C49.249 44.48 49.6743 44.1436 50.4551 44.0928L51.9912 43.9976V44.5054C51.9912 45.3052 51.3057 45.9082 50.3979 45.9082C49.7061 45.9082 49.249 45.5718 49.249 45.0195ZM55.7236 49.2344C57.1265 49.2344 57.9136 48.7075 58.4277 47.2285L60.8462 40.2715H59.1831L57.6025 45.6543H57.5581L55.9839 40.2715H54.2573L56.6758 47.0063L56.5806 47.2793C56.3774 47.8442 56.041 48.0156 55.438 48.0156C55.2158 48.0156 55.0317 47.9839 54.9111 47.9585V49.1646C55.1016 49.1963 55.4189 49.2344 55.7236 49.2344Z" fill="#4D4D4D"/>
</g>
<defs>
<filter id="filter0_d_476_1545" x="0" y="0" width="135" height="72" filterUnits="userSpaceOnUse" color-interpolation-filters="sRGB">
<feFlood flood-opacity="0" result="BackgroundImageFix"/>
<feColorMatrix in="SourceAlpha" type="matrix" values="0 0 0 0 0 0 0 0 0 0 0 0 0 0 0 0 0 0 127 0" result="hardAlpha"/>
<feOffset dy="2"/>
<feGaussianBlur stdDeviation="2"/>
<feColorMatrix type="matrix" values="0 0 0 0 0 0 0 0 0 0 0 0 0 0 0 0 0 0 0.07 0"/>
<feBlend mode="normal" in2="BackgroundImageFix" result="effect1_dropShadow_476_1545"/>
<feBlend mode="normal" in="SourceGraphic" in2="effect1_dropShadow_476_1545" result="shape"/>
</filter>
</defs>
</svg>
